# xmcd CD database file
# Copyright (C) 1995-1998 Ti Kan
#
# Track frame offsets:
#	183
#	10940
#	22083
#	34683
#	46908
#	64233
#	74358
#	84540
#	97008
#	108408
#	121940
#	134038
#	145595
#	163025
#
# Disc length: 2349 seconds
#
# Revision: 2
# Processed by: cddbd v1.4b41PL1 Copyright (c) Steve Scherf et al.
# Submitted via: CDex 1.40Beta1
#
DISCID=c3092b0e
DTITLE=John Lee Hooker - The John Lee Hooker Gold Collection
DYEAR=1992
DGENRE=Blues
TTITLE0=Maudie
TTITLE1=Shake, Holler and Run
TTITLE2=Hobo Blues
TTITLE3=Crawling King Snake
TTITLE4=Blues Before Sunrise
TTITLE5=Dimples
TTITLE6=Want-Ad Blues
TTITLE7=I'm In the Mood
TTITLE8=Boom Boom
TTITLE9=Time is Marching On
TTITLE10=Whiskey and Wimmen
TTITLE11=Boggie Chillun
TTITLE12=Wednesday Evening Blues
TTITLE13=Rock House Boogie
EXTD=YEAR: 1992 ID3G:   0
EXTT0=
EXTT1=
EXTT2=
EXTT3=
EXTT4=
EXTT5=
EXTT6=
EXTT7=
EXTT8=
EXTT9=
EXTT10=
EXTT11=
EXTT12=
EXTT13=
PLAYORDER=
